<?xml version="1.0" encoding="UTF-8"?>
<svg version="1.1" viewBox="0 0 2000 2000" width="1280" height="1280" xmlns="http://www.w3.org/2000/svg">
<path transform="translate(848,514)" d="m0 0 4 1 1 380h22l-1-79 1-143 14-7 33-15 20-10 3 1 2 82v34l-2-2-5-24-6-26-8-32-1 8-3 138-2 45 5-4 7-8 7-4 4-1 14-1h32l13 2 8 5 7 8 9 16 6 17 61 1h34l117 1h39l58-1-2-11-4-6-6-5-8-3-4 1-2 9-2 1h-196l-1-1-1-18-37 1-10 4-6 5-4 5h-2l-3-15-7-16-7-10-7-8-11-7-14-5-11-3-8-1v-2l25-3 13-1h22l19 3 13 4 15 8 15 12 3 1-1-13v-29l-10-6-28-13-27-13-16-8-17-9-23-11-20-9-10-8-1-7-3-62v-6h28l161 6 38 2 3 2 11 31 9 32 4 5 22 12 2 2-5-1-18-7-15-4h-20l-24 5-16 5-5 3-6 7-5 4-2 6 2 18 9 1 28 1 101 1 28 1 22 2 2 4 1 27 1 5 10 6 13 12 10 11 8 15 3 12 2 22 1 20 3 6 6 9 3 10v22l-2 5-1 1-8 1h-18l-5 26-8 21-7 13-9 11-5 5v3l66 17 35 10 29 10 33 13 64 28 16 8 6 5v2l-179-1-101-1h-129l-9-2-14-8-28-13-20-8-20-7-35-10-26-6-59-12-42-5-62-7-51-4-61-3-67-2h-121l-56 2h-25l2-2 25-5 49-8 16-1-7-16-3-13-1-8v-35l1-5h-17l-3-1-1-3-1-24v-15l2-1 213-10 8-1 32-1 18-1v-13l-49 1h-4l-13-1-49-1-144-2-2-2 16-4 22-2 61-8 46-5 71-9 39-4 6-1 1-37-3 1-44 2-3 1 2 3-1 6-1 2-1 17-2-1-1-18-1-4 1-6-6 1-39 2-57 2-2 1-53 2-34 2-1 52h-1l-1-18v-35h-28v-2l25-5 2-2v-45l1-2h2l1 6v35l-1 7 117-17 41-7 26-5 17-3 45-7v-13l-1-19-49 5-25 2-58 5-40 3-54 5-17 1h-12v-4l8-2v-38l-10 3-12 2v-2l11-5 12-5 17-5 42-15 52-18 16-6 21-7 19-7 21-7 16-6 26-9 16-6 1-36-12 3-38 13h-2v5l-2-2-7 1-21 7-18 7-27 8-19 7-26 9-13 5-50 16-12 4-5-1 2-4 19-10 23-12 40-20 15-7 41-20 17-8 19-10 28-13 66-33 19-10zm-63 151-51 11-31 7-51 12-35 8-17 4-52 10-7 2-1 4 1 34 9-1 41-9 92-21 28-6 29-7 34-8 14-4-1-36zm72 290-3 9-5 32v7h63l1-4-6-37-3-7zm-167 1-1 1-1 35-2 21h14l45-3 8-1 1-3-6-25-5-24-1-1zm347 7-3 12-6 30 2 1 75 6 60 6 51 6h5l-2-6-7-19-8-30-1-5-2-1z" fill="#1F503D"/>
<path transform="translate(957,641)" d="m0 0h28l161 6 38 2 3 2 11 31 9 32 4 5 22 12 2 2-5-1-18-7-15-4h-20l-6 1-155-2-52-1-3-3-1-7-3-62z" fill="#1F503D"/>
<path transform="translate(876,514)" d="m0 0 64 7 106 10 39 5 13 2v1l-63 5-47 3-38 3-8 1 1 51 49 7 52 6 26 5 6 2v2l-3 1h-37l-96-2-7 4-12 4-16 8-25 12-5 1-1-9v-72l1-56z" fill="#FDFDFD"/>
<path transform="translate(824,551)" d="m0 0h3l1 6-1 55-5 3-33 11h-2v-35l-12 3-38 13h-2v5l-2-2-7 1-21 7-18 7-27 8-19 7-26 9-13 5-50 16-12 4-5-1 2-4 12-6 10-3 27-9 15-6 12-5 13-5 15-7 24-10 35-15 31-13 21-9 15-6 11-5 34-14z" fill="#FCFCFC"/>
<path transform="translate(876,514)" d="m0 0 64 7 106 10 39 5 13 2v1l-27 2h-79l-55-2-39-1-1 103-3 3-16 8h-3l-1-9v-72l1-56z" fill="#20513E"/>
<path transform="translate(826,717)" d="m0 0h1v50l-6 2-30 5h-3l-2-31-49 5-25 2-58 5-40 3-54 5-17 1h-12v-4l8-2 3 1 5-1 20-1 11-2 25-3 29-4 15-3 128-20z" fill="#FDFDFD"/>
<path transform="translate(966,719)" d="m0 0h50l144 2 6 1v1l-24 6-9 4-7 8-5 4-2 6 2 18h-12l-55-17-36-12-21-6-6-1-20-9z" fill="#FCFCFC"/>
<path transform="translate(539,766)" d="m0 0h2l1 6v35l-1 7 3 1-6 2 1 3 23-1 6-2 37-3 19-2 44-4 30-3 86-8 37-3h6v47l-3 2-32 4h-5v-37l-3 1-44 2-3 1 2 3-1 6-1 2-1 17-2-1-1-18-1-4 1-6-6 1-39 2-57 2-2 1-53 2-34 2-1 52h-1l-1-18v-35h-28v-2l25-5 2-2v-45z" fill="#FCFCFC"/>
<path transform="translate(822,639)" d="m0 0h5v52l-9 3-28 6h-2l-1-10v-25l-16 4-37 8-31 7-51 12-35 8-17 4-48 9-3-1 6-4 10-2 9-2 1-1 14-3 14-4 30-8 55-16 35-9 25-7 31-9 36-10z" fill="#FDFDFD"/>
<path transform="translate(808,869)" d="m0 0h19v27l-2 1-39 2v-14l-49 1h-4l-13-1-49-1-144-2-2-2 16-4 2 2-2 2h48l19-2 94-4 81-4z" fill="#FDFDFD"/>
<path transform="translate(1091,921)" d="m0 0h220l14 1 2 1v2l-2 1h-34l-12 1-2 1-1 8-1 1h-29l-65-1-3-8-5-1-21-1h-75l1-3z" fill="#FDFDFD"/>
<path transform="translate(1061,657)" d="m0 0h54l58 2 4 3 6 20 3 13-6-5-9-14-3-3-18-3-58-6-22-3-12-2z" fill="#FDFDFD"/>
<path transform="translate(939,886)" d="m0 0h3l-2 4-5 6-4 13-2 12-1 13v11l3 21 4 12 6 8 2 1h6l5-5 4-3-2 9-6 12-5 4h-7l-6-5-5-11-5-19-1-11v-29l3-17 6-16 4-6z" fill="#FDFDFD"/>
<path transform="translate(1137,788)" d="m0 0h11l2 1v27l-1 50-3 2-8-1-1-1z" fill="#FDFDFD"/>
<path transform="translate(1174,789)" d="m0 0h12v51l-1 25-3 2h-7l-2-3v-74z" fill="#FDFDFD"/>
<path transform="translate(1211,789)" d="m0 0h11l1 1v24l-1 46-2 6-6 1-3-1-1-2v-74z" fill="#FDFDFD"/>
<path transform="translate(1282,790)" d="m0 0h11l1 1v24l-1 35-1 16-2 1h-7l-2-1v-75z" fill="#FDFDFD"/>
<path transform="translate(1246,790)" d="m0 0h11l1 1v33l-1 39-4 4-7-1-1-2v-47z" fill="#FDFDFD"/>
<path transform="translate(539,766)" d="m0 0h2l1 6v35l-1 7 3 1-6 2 1 3h23v1l-20 2-1 52h-1l-1-18v-35h-28v-2l25-5 2-2v-45z" fill="#FDFDFD"/>
<path transform="translate(556,942)" d="m0 0h2l-2 5-4 8-2 10v24l4 13 4 4h7l2-1-3 9-4 3-7-1-5-10-3-13v-27l3-13 5-8z" fill="#FDFDFD"/>
<path transform="translate(625,942)" d="m0 0h2l-7 14-2 14v15l4 15 2 5 5 2 5 1v5l-5 4-6-1-4-5-3-8-2-12v-23l4-16 5-8z" fill="#FDFDFD"/>
<path transform="translate(642,1200)" d="m0 0 1 2-16 7-9 3 2-4 11-6z" fill="#557A6C"/>
<path transform="translate(535,715)" d="m0 0 3 1-3 3 2 2-17 4h-3v-2l11-5z" fill="#F4F6F5"/>
<path transform="translate(1235,733)" d="m0 0 5 1 14 6 1 2-9-3-11-5z" fill="#BFCDC8"/>
<path transform="translate(539,681)" d="m0 0h1v29h-1z" fill="#FDFDFD"/>
<path transform="translate(929,818)" d="m0 0 5 1v2h-5z" fill="#FDFDFD"/>
<path transform="translate(540,888)" d="m0 0h1v13h-1z" fill="#FDFDFD"/>
<path transform="translate(756,819)" d="m0 0 9 1v1h-10z" fill="#FDFDFD"/>
<path transform="translate(734,686)" d="m0 0h2v5h-2z" fill="#FDFDFD"/>
<path transform="translate(735,621)" d="m0 0h1v5h-2z" fill="#FDFDFD"/>
<path transform="translate(539,901)" d="m0 0h1v8h-1z" fill="#FDFDFD"/>
<path transform="translate(740,818)" d="m0 0h2v2h-2z" fill="#FDFDFD"/>
<path transform="translate(751,820)" d="m0 0 2 1z" fill="#FDFDFD"/>
<path transform="translate(931,778)" d="m0 0" fill="#FDFDFD"/>
<path transform="translate(734,842)" d="m0 0" fill="#FDFDFD"/>
<path transform="translate(539,679)" d="m0 0" fill="#FDFDFD"/>
</svg>
